<svg id="Шар_1" data-name="Шар 1" xmlns="http://www.w3.org/2000/svg" viewBox="0 0 24 24"><defs><style>.cls-1{fill:#fff;}.cls-2{fill:none;stroke:#fff;stroke-miterlimit:10;stroke-width:2px;}</style></defs><title>add-filled-01</title><path class="cls-1" d="M17.62,3H6.37A3.38,3.38,0,0,0,3,6.37V17.62A3.37,3.37,0,0,0,6.37,21H17.62A3.37,3.37,0,0,0,21,17.62V6.37A3.38,3.38,0,0,0,17.62,3ZM15.37,13H13v2.37a1,1,0,0,1-2,0V13H8.63a1,1,0,0,1,0-2H11V8.62a1,1,0,0,1,2,0V11h2.37a1,1,0,1,1,0,2Z"/><path class="cls-2" d="M8.63,12,12,12m9-5.62V17.62A3.37,3.37,0,0,1,17.63,21H6.38A3.37,3.37,0,0,1,3,17.62V6.37A3.38,3.38,0,0,1,6.38,3H17.63A3.38,3.38,0,0,1,21,6.37Z"/></svg>