<svg id="Шар_1" data-name="Шар 1" xmlns="http://www.w3.org/2000/svg" viewBox="0 0 60.42 35.88"><defs><style>.cls-1{fill:none;stroke:#fff;stroke-miterlimit:10;stroke-width:2px;}.cls-2{fill:#fff;}</style></defs><title>add-filled</title><path class="cls-1" d="M-31.79-3.88m3.37,0,9-5.62V1.75a3.38,3.38,0,0,1-3.37,3.38H-34a3.38,3.38,0,0,1-3.38-3.38V-9.5A3.37,3.37,0,0,1-34-12.87h11.25A3.37,3.37,0,0,1-19.42-9.5Z" transform="translate(38.42 13.87)"/><path class="cls-2" d="M-25-4.88h-2.37V-7.25a1,1,0,0,0-1-1,1,1,0,0,0-1,1v2.37h-2.37a1,1,0,0,0-1,1,1,1,0,0,0,1,1h2.37V-.51a1,1,0,0,0,1,1,1,1,0,0,0,1-1V-2.88H-25a1,1,0,0,0,1-1A1,1,0,0,0-25-4.88Z" transform="translate(38.42 13.87)"/><path class="cls-2" d="M17.63,3H6.38A3.37,3.37,0,0,0,3,6.37V17.62A3.38,3.38,0,0,0,6.38,21H17.63A3.37,3.37,0,0,0,21,17.62V6.37A3.37,3.37,0,0,0,17.63,3ZM15.37,13H13v2.36a1,1,0,0,1-2,0V13H8.63a1,1,0,0,1,0-2H11V8.62a1,1,0,0,1,2,0V11h2.37a1,1,0,0,1,0,2Z" transform="translate(38.42 13.87)"/><path class="cls-1" d="M8.63,12,12,12m9-5.63V17.63A3.37,3.37,0,0,1,17.62,21H6.37A3.37,3.37,0,0,1,3,17.63V6.37A3.37,3.37,0,0,1,6.37,3H17.62A3.37,3.37,0,0,1,21,6.37Z" transform="translate(38.42 13.87)"/></svg>