<svg id="Шар_1" data-name="Шар 1" xmlns="http://www.w3.org/2000/svg" viewBox="0 0 24 24"><defs><style>.cls-1{fill:none;stroke:#fff;stroke-miterlimit:10;stroke-width:2px;}.cls-2{fill:#fff;}</style></defs><title>add-outline</title><path class="cls-1" d="M8.63,12,12,12m9-5.63V17.63A3.37,3.37,0,0,1,17.62,21H6.37A3.37,3.37,0,0,1,3,17.63V6.37A3.37,3.37,0,0,1,6.37,3H17.62A3.37,3.37,0,0,1,21,6.37Z"/><path class="cls-2" d="M15.37,11H13V8.62a1,1,0,0,0-2,0V11H8.63a1,1,0,0,0,0,2H11v2.36a1,1,0,0,0,2,0V13h2.37a1,1,0,0,0,0-2Z"/></svg>