<svg width="196" height="227" viewBox="0 0 196 227" fill="none" xmlns="http://www.w3.org/2000/svg">
<path d="M115.5 111.5V156.875C115.5 164.042 113.875 169.417 110.625 173C107.375 176.583 103.083 178.375 97.75 178.375C92.5833 178.375 88.375 176.583 85.125 173C81.9583 169.417 80.375 164.042 80.375 156.875V102.5C80.375 93.9167 80.0833 87.25 79.5 82.5C78.9167 77.75 77.3333 73.875 74.75 70.875C72.1667 67.7917 68.0833 66.25 62.5 66.25C51.3333 66.25 43.9583 70.0833 40.375 77.75C36.875 85.4167 35.125 96.4167 35.125 110.75V156.875C35.125 163.958 33.5 169.333 30.25 173C27.0833 176.583 22.875 178.375 17.625 178.375C12.4583 178.375 8.20833 176.583 4.875 173C1.625 169.333 0 163.958 0 156.875V19.625C0 13.2083 1.45833 8.33333 4.375 5C7.375 1.66667 11.2917 0 16.125 0C20.7917 0 24.6667 1.58333 27.75 4.75C30.9167 7.83333 32.5 12.125 32.5 17.625V60.5C38.4167 53.4167 44.75 48.2083 51.5 44.875C58.25 41.5417 65.75 39.875 74 39.875C82.5833 39.875 89.9583 41.5833 96.125 45C102.292 48.4167 107.375 53.5833 111.375 60.5C117.125 53.5 123.292 48.3333 129.875 45C136.458 41.5833 143.75 39.875 151.75 39.875C161.083 39.875 169.125 41.7083 175.875 45.375C182.625 49.0417 187.667 54.2917 191 61.125C193.917 67.2917 195.375 77 195.375 90.25L195.875 205.5C195.875 212.667 194.25 218.042 191 221.625C187.75 225.208 183.458 227 178.125 227C172.958 227 168.708 225.208 165.375 221.625C162.125 217.958 160.5 212.583 160.5 205.5C160.5 198.417 160 99.5 160 99.5C160 92.1667 159.667 86.2917 159 81.875C158.417 77.4583 156.75 73.75 154 70.75C151.25 67.75 147.083 66.25 141.5 66.25C137 66.25 132.708 67.5833 128.625 70.25C124.625 72.9167 121.5 76.5 119.25 81C116.75 86.75 115.5 96.9167 115.5 111.5Z" fill="#F5EFEF"/>
<path d="M169 104C178.941 104 187 112.059 187 122V209C187 213.971 182.971 218 178 218C173.029 218 169 213.971 169 209V104Z" fill="#1A1A1A"/>
</svg>
