<svg width="225" height="40" viewBox="0 0 225 40" fill="none" xmlns="http://www.w3.org/2000/svg">
<path d="M33.0664 21.0703V33.832C33.0664 35.8477 32.6094 37.3594 31.6953 38.3672C30.7812 39.375 29.5742 39.8789 28.0742 39.8789C26.6211 39.8789 25.4375 39.375 24.5234 38.3672C23.6328 37.3594 23.1875 35.8477 23.1875 33.832V18.5391C23.1875 16.125 23.1055 14.25 22.9414 12.9141C22.7773 11.5781 22.332 10.4883 21.6055 9.64453C20.8789 8.77734 19.7305 8.34375 18.1602 8.34375C15.0195 8.34375 12.9453 9.42188 11.9375 11.5781C10.9531 13.7344 10.4609 16.8281 10.4609 20.8594V33.832C10.4609 35.8242 10.0039 37.3359 9.08984 38.3672C8.19922 39.375 7.01562 39.8789 5.53906 39.8789C4.08594 39.8789 2.89062 39.375 1.95312 38.3672C1.03906 37.3359 0.582031 35.8242 0.582031 33.832V6.375C0.582031 4.57031 0.992188 3.19922 1.8125 2.26172C2.65625 1.32422 3.75781 0.855469 5.11719 0.855469C6.42969 0.855469 7.51953 1.30078 8.38672 2.19141C9.27734 3.05859 9.72266 4.26562 9.72266 5.8125V6.72656C11.3867 4.73438 13.168 3.26953 15.0664 2.33203C16.9648 1.39453 19.0742 0.925781 21.3945 0.925781C23.8086 0.925781 25.8828 1.40625 27.6172 2.36719C29.3516 3.32812 30.7812 4.78125 31.9062 6.72656C33.5234 4.75781 35.2578 3.30469 37.1094 2.36719C38.9609 1.40625 41.0117 0.925781 43.2617 0.925781C45.8867 0.925781 48.1484 1.44141 50.0469 2.47266C51.9453 3.50391 53.3633 4.98047 54.3008 6.90234C55.1211 8.63672 55.5312 11.3672 55.5312 15.0938V33.832C55.5312 35.8477 55.0742 37.3594 54.1602 38.3672C53.2461 39.375 52.0391 39.8789 50.5391 39.8789C49.0859 39.8789 47.8906 39.375 46.9531 38.3672C46.0391 37.3359 45.582 35.8242 45.582 33.832V17.6953C45.582 15.6328 45.4883 13.9805 45.3008 12.7383C45.1367 11.4961 44.668 10.4531 43.8945 9.60938C43.1211 8.76562 41.9492 8.34375 40.3789 8.34375C39.1133 8.34375 37.9062 8.71875 36.7578 9.46875C35.6328 10.2188 34.7539 11.2266 34.1211 12.4922C33.418 14.1094 33.0664 16.9688 33.0664 21.0703ZM100.777 20.3672C100.777 23.2266 100.332 25.8633 99.4414 28.2773C98.5508 30.6914 97.2617 32.7656 95.5742 34.5C93.8867 36.2344 91.8711 37.5703 89.5273 38.5078C87.1836 39.4219 84.5469 39.8789 81.6172 39.8789C78.7109 39.8789 76.0977 39.4102 73.7773 38.4727C71.457 37.5352 69.4414 36.1992 67.7305 34.4648C66.043 32.707 64.7539 30.6445 63.8633 28.2773C62.9961 25.8867 62.5625 23.25 62.5625 20.3672C62.5625 17.4609 63.0078 14.8008 63.8984 12.3867C64.7891 9.97266 66.0664 7.91016 67.7305 6.19922C69.3945 4.48828 71.4102 3.17578 73.7773 2.26172C76.1445 1.32422 78.7578 0.855469 81.6172 0.855469C84.5234 0.855469 87.1602 1.32422 89.5273 2.26172C91.8945 3.19922 93.9219 4.53516 95.6094 6.26953C97.2969 8.00391 98.5742 10.0664 99.4414 12.457C100.332 14.8477 100.777 17.4844 100.777 20.3672ZM91.1445 20.3672C91.1445 16.4531 90.2773 13.4062 88.543 11.2266C86.832 9.04688 84.5234 7.95703 81.6172 7.95703C79.7422 7.95703 78.0898 8.44922 76.6602 9.43359C75.2305 10.3945 74.1289 11.8242 73.3555 13.7227C72.582 15.6211 72.1953 17.8359 72.1953 20.3672C72.1953 22.875 72.5703 25.0664 73.3203 26.9414C74.0938 28.8164 75.1836 30.2578 76.5898 31.2656C78.0195 32.25 79.6953 32.7422 81.6172 32.7422C84.5234 32.7422 86.832 31.6523 88.543 29.4727C90.2773 27.2695 91.1445 24.2344 91.1445 20.3672ZM114.172 6.83203L121.941 28.6289L130.309 5.88281C130.965 4.05469 131.609 2.76562 132.242 2.01562C132.875 1.24219 133.836 0.855469 135.125 0.855469C136.344 0.855469 137.375 1.26563 138.219 2.08594C139.086 2.90625 139.52 3.85547 139.52 4.93359C139.52 5.35547 139.438 5.84766 139.273 6.41016C139.133 6.97266 138.957 7.5 138.746 7.99219C138.559 8.48438 138.336 9.04688 138.078 9.67969L128.867 32.5312C128.609 33.1875 128.27 34.0195 127.848 35.0273C127.449 36.0352 126.992 36.9023 126.477 37.6289C125.984 38.332 125.363 38.8828 124.613 39.2812C123.887 39.6797 122.996 39.8789 121.941 39.8789C120.582 39.8789 119.492 39.5742 118.672 38.9648C117.875 38.332 117.277 37.6523 116.879 36.9258C116.504 36.1758 115.859 34.7109 114.945 32.5312L105.805 9.92578C105.594 9.36328 105.371 8.80078 105.137 8.23828C104.926 7.67578 104.738 7.10156 104.574 6.51562C104.434 5.92969 104.363 5.42578 104.363 5.00391C104.363 4.34766 104.562 3.70312 104.961 3.07031C105.359 2.41406 105.91 1.88672 106.613 1.48828C107.316 1.06641 108.078 0.855469 108.898 0.855469C110.492 0.855469 111.582 1.3125 112.168 2.22656C112.777 3.14062 113.445 4.67578 114.172 6.83203ZM172.215 22.7227H153.441C153.465 24.9023 153.898 26.8242 154.742 28.4883C155.609 30.1523 156.746 31.4062 158.152 32.25C159.582 33.0938 161.152 33.5156 162.863 33.5156C164.012 33.5156 165.055 33.3867 165.992 33.1289C166.953 32.8477 167.879 32.4258 168.77 31.8633C169.66 31.2773 170.48 30.6562 171.23 30C171.98 29.3438 172.953 28.4531 174.148 27.3281C174.641 26.9062 175.344 26.6953 176.258 26.6953C177.242 26.6953 178.039 26.9648 178.648 27.5039C179.258 28.043 179.562 28.8047 179.562 29.7891C179.562 30.6562 179.223 31.6758 178.543 32.8477C177.863 33.9961 176.832 35.1094 175.449 36.1875C174.09 37.2422 172.367 38.1211 170.281 38.8242C168.219 39.5273 165.84 39.8789 163.145 39.8789C156.98 39.8789 152.188 38.1211 148.766 34.6055C145.344 31.0898 143.633 26.3203 143.633 20.2969C143.633 17.4609 144.055 14.8359 144.898 12.4219C145.742 9.98438 146.973 7.89844 148.59 6.16406C150.207 4.42969 152.199 3.10547 154.566 2.19141C156.934 1.25391 159.559 0.785156 162.441 0.785156C166.191 0.785156 169.402 1.58203 172.074 3.17578C174.77 4.74609 176.785 6.78516 178.121 9.29297C179.457 11.8008 180.125 14.3555 180.125 16.957C180.125 19.3711 179.434 20.9414 178.051 21.668C176.668 22.3711 174.723 22.7227 172.215 22.7227ZM153.441 17.2734H170.844C170.609 13.9922 169.719 11.543 168.172 9.92578C166.648 8.28516 164.633 7.46484 162.125 7.46484C159.734 7.46484 157.766 8.29688 156.219 9.96094C154.695 11.6016 153.77 14.0391 153.441 17.2734ZM224.176 20.3672C224.176 23.2266 223.73 25.8633 222.84 28.2773C221.949 30.6914 220.66 32.7656 218.973 34.5C217.285 36.2344 215.27 37.5703 212.926 38.5078C210.582 39.4219 207.945 39.8789 205.016 39.8789C202.109 39.8789 199.496 39.4102 197.176 38.4727C194.855 37.5352 192.84 36.1992 191.129 34.4648C189.441 32.707 188.152 30.6445 187.262 28.2773C186.395 25.8867 185.961 23.25 185.961 20.3672C185.961 17.4609 186.406 14.8008 187.297 12.3867C188.188 9.97266 189.465 7.91016 191.129 6.19922C192.793 4.48828 194.809 3.17578 197.176 2.26172C199.543 1.32422 202.156 0.855469 205.016 0.855469C207.922 0.855469 210.559 1.32422 212.926 2.26172C215.293 3.19922 217.32 4.53516 219.008 6.26953C220.695 8.00391 221.973 10.0664 222.84 12.457C223.73 14.8477 224.176 17.4844 224.176 20.3672ZM214.543 20.3672C214.543 16.4531 213.676 13.4062 211.941 11.2266C210.23 9.04688 207.922 7.95703 205.016 7.95703C203.141 7.95703 201.488 8.44922 200.059 9.43359C198.629 10.3945 197.527 11.8242 196.754 13.7227C195.98 15.6211 195.594 17.8359 195.594 20.3672C195.594 22.875 195.969 25.0664 196.719 26.9414C197.492 28.8164 198.582 30.2578 199.988 31.2656C201.418 32.25 203.094 32.7422 205.016 32.7422C207.922 32.7422 210.23 31.6523 211.941 29.4727C213.676 27.2695 214.543 24.2344 214.543 20.3672Z" fill="#0437F2"/>
</svg>
